ffmpeg started on 2025-04-30 at 17:46:54
Report written to "D:\Convert\FFMetrics\reports\psnr_report-6.txt"
Log level: 32
Command line:
ffmpeg -hide_banner -nostdin -i "G:\\\xc0\xed\xe8\xec\xe5\\\xce\xed\xe3\xee\xe8\xed\xe3\xe8\\!_37_\xc7\xe8\xec\xe0_2025\\JamClub\\\xcf\xee\xe4\xed\xff\xf2\xe8\xe5 \xf3\xf0\xee\xe2\xed\xff \xe2 \xee\xe4\xe8\xed\xee\xf7\xea\xf3\\\xd2\xc2-2\\JamClub_Ore_dake_Level_Up_na_Ken_Season_2_11_1080p_HEVC.mkv" -i "G:\\\xc0\xed\xe8\xec\xe5\\\xce\xed\xe3\xee\xe8\xed\xe3\xe8\\!_37_\xc7\xe8\xec\xe0_2025\\JamClub\\\xcf\xee\xe4\xed\xff\xf2\xe8\xe5 \xf3\xf0\xee\xe2\xed\xff \xe2 \xee\xe4\xe8\xed\xee\xf7\xea\xf3\\\xd2\xc2-2\\JamClub_Ore_dake_Level_Up_na_Ken_Season_2_11_1080p.mp4" -lavfi "[0:v]settb=AVTB,setpts=PTS-STARTPTS,format=pix_fmts=yuv420p10,fps=24000/1001,scale=1920:1080:flags=bicubic[main];[1:v]settb=AVTB,setpts=PTS-STARTPTS,format=pix_fmts=yuv420p,fps=24000/1001,scale=1920:1080:flags=bicubic[ref];[main][ref]psnr=eof_action=endall:stats_file='D\\:/Convert/FFMetrics/logs/psnr_logfile-6.txt'" -f null -
Input #0, matroska,webm, from 'G:\Аниме\Онгоинги\!_37_Зима_2025\JamClub\Поднятие уровня в одиночку\ТВ-2\JamClub_Ore_dake_Level_Up_na_Ken_Season_2_11_1080p_HEVC.mkv':
  Metadata:
    COMPATIBLE_BRANDS: isomiso2avc1mp41
    MAJOR_BRAND     : isom
    MINOR_VERSION   : 512
    ENCODER         : Lavf61.7.100
  Duration: 00:24:02.33, start: -0.001000, bitrate: 2095 kb/s
  Stream #0:0: Video: hevc (Main 10), yuv420p10le(tv, bt709, progressive), 1920x1080 [SAR 1:1 DAR 16:9], 23.98 fps, 23.98 tbr, 1k tbn (default)
      Metadata:
        HANDLER_NAME    : VideoHandler
        VENDOR_ID       : [0][0][0][0]
        ENCODER         : Lavc61.19.100 libx265
        BPS             : 1897526
        DURATION        : 00:24:02.190708333
        NUMBER_OF_FRAMES: 34578
        NUMBER_OF_BYTES : 342074249
        _STATISTICS_WRITING_APP: mkvpropedit v66.0.0 ('Josie') 64-bit
        _STATISTICS_WRITING_DATE_UTC: 2025-04-30 09:59:31
        _STATISTICS_TAGS: BPS DURATION NUMBER_OF_FRAMES NUMBER_OF_BYTES
  Stream #0:1(eng): Audio: aac (LC), 48000 Hz, stereo, fltp (default)
      Metadata:
        HANDLER_NAME    : SoundHandler
        VENDOR_ID       : [0][0][0][0]
        ENCODER         : Lavc61.19.100 aac
        BPS             : 193656
        DURATION        : 00:24:02.285000000
        NUMBER_OF_FRAMES: 67608
        NUMBER_OF_BYTES : 34913569
        _STATISTICS_WRITING_APP: mkvpropedit v66.0.0 ('Josie') 64-bit
        _STATISTICS_WRITING_DATE_UTC: 2025-04-30 09:59:31
        _STATISTICS_TAGS: BPS DURATION NUMBER_OF_FRAMES NUMBER_OF_BYTES
Input #1, mov,mp4,m4a,3gp,3g2,mj2, from 'G:\Аниме\Онгоинги\!_37_Зима_2025\JamClub\Поднятие уровня в одиночку\ТВ-2\JamClub_Ore_dake_Level_Up_na_Ken_Season_2_11_1080p.mp4':
  Metadata:
    major_brand     : isom
    minor_version   : 512
    compatible_brands: isomiso2avc1mp41
    encoder         : Lavf60.16.100
  Duration: 00:24:02.31, start: 0.000000, bitrate: 5744 kb/s
  Stream #1:0[0x1](und): Video: h264 (High) (avc1 / 0x31637661), yuv420p(progressive), 1920x1080 [SAR 1:1 DAR 16:9], 5546 kb/s, 23.98 fps, 23.98 tbr, 90k tbn (default)
      Metadata:
        handler_name    : VideoHandler
        vendor_id       : [0][0][0][0]
  Stream #1:1[0x2](eng): Audio: aac (LC) (mp4a / 0x6134706D), 48000 Hz, stereo, fltp, 191 kb/s (default)
      Metadata:
        handler_name    : SoundHandler
        vendor_id       : [0][0][0][0]
Stream mapping:
  Stream #0:0 (hevc) -> settb:default
  Stream #1:0 (h264) -> settb:default
  psnr:default -> Stream #0:0 (wrapped_avframe)
  Stream #0:1 -> #0:1 (aac (native) -> pcm_s16le (native))
Output #0, null, to 'pipe:':
  Metadata:
    COMPATIBLE_BRANDS: isomiso2avc1mp41
    MAJOR_BRAND     : isom
    MINOR_VERSION   : 512
    encoder         : Lavf61.7.100
  Stream #0:0: Video: wrapped_avframe, yuv420p10le(tv, bt709, progressive), 1920x1080 [SAR 1:1 DAR 16:9], q=2-31, 200 kb/s, 23.98 fps, 23.98 tbn
      Metadata:
        encoder         : Lavc61.19.100 wrapped_avframe
  Stream #0:1(eng): Audio: pcm_s16le, 48000 Hz, stereo, s16, 1536 kb/s (default)
      Metadata:
        HANDLER_NAME    : SoundHandler
        VENDOR_ID       : [0][0][0][0]
        _STATISTICS_TAGS: BPS DURATION NUMBER_OF_FRAMES NUMBER_OF_BYTES
        BPS             : 193656
        DURATION        : 00:24:02.285000000
        NUMBER_OF_FRAMES: 67608
        NUMBER_OF_BYTES : 34913569
        _STATISTICS_WRITING_APP: mkvpropedit v66.0.0 ('Josie') 64-bit
        _STATISTICS_WRITING_DATE_UTC: 2025-04-30 09:59:31
        encoder         : Lavc61.19.100 pcm_s16le
frame=  116 fps=0.0 q=-0.0 size=N/A time=00:00:04.83 bitrate=N/A speed=9.16x    frame=  275 fps=265 q=-0.0 size=N/A time=00:00:11.46 bitrate=N/A speed=  11x    frame=  475 fps=305 q=-0.0 size=N/A time=00:00:19.81 bitrate=N/A speed=12.7x    frame=  695 fps=336 q=-0.0 size=N/A time=00:00:28.98 bitrate=N/A speed=  14x    frame=  891 fps=344 q=-0.0 size=N/A time=00:00:37.16 bitrate=N/A speed=14.3x    frame= 1083 fps=350 q=-0.0 size=N/A time=00:00:45.17 bitrate=N/A speed=14.6x    frame= 1271 fps=351 q=-0.0 size=N/A time=00:00:53.01 bitrate=N/A speed=14.7x    frame= 1468 fps=356 q=-0.0 size=N/A time=00:01:01.22 bitrate=N/A speed=14.8x    frame= 1660 fps=357 q=-0.0 size=N/A time=00:01:09.23 bitrate=N/A speed=14.9x    frame= 1859 fps=360 q=-0.0 size=N/A time=00:01:17.53 bitrate=N/A speed=  15x    frame= 2054 fps=362 q=-0.0 size=N/A time=00:01:25.66 bitrate=N/A speed=15.1x    frame= 2250 fps=363 q=-0.0 size=N/A time=00:01:33.84 bitrate=N/A speed=15.1x    frame= 2427 fps=362 q=-0.0 size=N/A time=00:01:41.22 bitrate=N/A speed=15.1x    frame= 2598 fps=359 q=-0.0 size=N/A time=00:01:48.35 bitrate=N/A speed=  15x    frame= 2770 fps=358 q=-0.0 size=N/A time=00:01:55.53 bitrate=N/A speed=14.9x    frame= 2964 fps=359 q=-0.0 size=N/A time=00:02:03.62 bitrate=N/A speed=  15x    frame= 3122 fps=356 q=-0.0 size=N/A time=00:02:10.21 bitrate=N/A speed=14.8x    frame= 3292 fps=354 q=-0.0 size=N/A time=00:02:17.30 bitrate=N/A speed=14.8x    frame= 3437 fps=351 q=-0.0 size=N/A time=00:02:23.35 bitrate=N/A speed=14.6x    frame= 3616 fps=350 q=-0.0 size=N/A time=00:02:30.81 bitrate=N/A speed=14.6x    frame= 3805 fps=351 q=-0.0 size=N/A time=00:02:38.70 bitrate=N/A speed=14.7x    frame= 4026 fps=355 q=-0.0 size=N/A time=00:02:47.91 bitrate=N/A speed=14.8x    frame= 4225 fps=356 q=-0.0 size=N/A time=00:02:56.21 bitrate=N/A speed=14.9x    frame= 4443 fps=359 q=-0.0 size=N/A time=00:03:05.31 bitrate=N/A speed=  15x    frame= 4624 fps=359 q=-0.0 size=N/A time=00:03:12.85 bitrate=N/A speed=  15x    frame= 4859 fps=362 q=-0.0 size=N/A time=00:03:22.66 bitrate=N/A speed=15.1x    frame= 5118 fps=367 q=-0.0 size=N/A time=00:03:33.46 bitrate=N/A speed=15.3x    frame= 5344 fps=370 q=-0.0 size=N/A time=00:03:42.88 bitrate=N/A speed=15.4x    frame= 5599 fps=374 q=-0.0 size=N/A time=00:03:53.52 bitrate=N/A speed=15.6x    frame= 5828 fps=377 q=-0.0 size=N/A time=00:04:03.07 bitrate=N/A speed=15.7x    frame= 6115 fps=382 q=-0.0 size=N/A time=00:04:15.04 bitrate=N/A speed=15.9x    frame= 6350 fps=385 q=-0.0 size=N/A time=00:04:24.84 bitrate=N/A speed=  16x    frame= 6514 fps=383 q=-0.0 size=N/A time=00:04:31.68 bitrate=N/A speed=  16x    frame= 6691 fps=381 q=-0.0 size=N/A time=00:04:39.07 bitrate=N/A speed=15.9x    frame= 6898 fps=382 q=-0.0 size=N/A time=00:04:47.70 bitrate=N/A speed=15.9x    frame= 7105 fps=383 q=-0.0 size=N/A time=00:04:56.33 bitrate=N/A speed=  16x    frame= 7344 fps=385 q=-0.0 size=N/A time=00:05:06.30 bitrate=N/A speed=  16x    frame= 7554 fps=385 q=-0.0 size=N/A time=00:05:15.06 bitrate=N/A speed=16.1x    frame= 7810 fps=388 q=-0.0 size=N/A time=00:05:25.74 bitrate=N/A speed=16.2x    frame= 8046 fps=390 q=-0.0 size=N/A time=00:05:35.58 bitrate=N/A speed=16.3x    frame= 8269 fps=391 q=-0.0 size=N/A time=00:05:44.88 bitrate=N/A speed=16.3x    frame= 8468 fps=391 q=-0.0 size=N/A time=00:05:53.18 bitrate=N/A speed=16.3x    frame= 8665 fps=390 q=-0.0 size=N/A time=00:06:01.40 bitrate=N/A speed=16.3x    frame= 8861 fps=390 q=-0.0 size=N/A time=00:06:09.57 bitrate=N/A speed=16.3x    frame= 9069 fps=391 q=-0.0 size=N/A time=00:06:18.25 bitrate=N/A speed=16.3x    frame= 9239 fps=389 q=-0.0 size=N/A time=00:06:25.34 bitrate=N/A speed=16.2x    frame= 9365 fps=386 q=-0.0 size=N/A time=00:06:30.59 bitrate=N/A speed=16.1x    frame= 9573 fps=387 q=-0.0 size=N/A time=00:06:39.27 bitrate=N/A speed=16.1x    frame= 9765 fps=386 q=-0.0 size=N/A time=00:06:47.28 bitrate=N/A speed=16.1x    frame= 9973 fps=387 q=-0.0 size=N/A time=00:06:55.95 bitrate=N/A speed=16.1x    frame=10164 fps=386 q=-0.0 size=N/A time=00:07:03.92 bitrate=N/A speed=16.1x    frame=10346 fps=386 q=-0.0 size=N/A time=00:07:11.51 bitrate=N/A speed=16.1x    frame=10544 fps=385 q=-0.0 size=N/A time=00:07:19.77 bitrate=N/A speed=16.1x    frame=10764 fps=386 q=-0.0 size=N/A time=00:07:28.94 bitrate=N/A speed=16.1x    frame=10986 fps=387 q=-0.0 size=N/A time=00:07:38.20 bitrate=N/A speed=16.1x    frame=11183 fps=387 q=-0.0 size=N/A time=00:07:46.42 bitrate=N/A speed=16.1x    frame=11433 fps=389 q=-0.0 size=N/A time=00:07:56.85 bitrate=N/A speed=16.2x    frame=11704 fps=391 q=-0.0 size=N/A time=00:08:08.15 bitrate=N/A speed=16.3x    frame=11908 fps=391 q=-0.0 size=N/A time=00:08:16.66 bitrate=N/A speed=16.3x    frame=12130 fps=392 q=-0.0 size=N/A time=00:08:25.92 bitrate=N/A speed=16.3x    frame=12339 fps=392 q=-0.0 size=N/A time=00:08:34.68 bitrate=N/A speed=16.3x    frame=12510 fps=391 q=-0.0 size=N/A time=00:08:41.77 bitrate=N/A speed=16.3x    frame=12687 fps=390 q=-0.0 size=N/A time=00:08:49.15 bitrate=N/A speed=16.3x    frame=12904 fps=391 q=-0.0 size=N/A time=00:08:58.20 bitrate=N/A speed=16.3x    frame=13105 fps=391 q=-0.0 size=N/A time=00:09:06.58 bitrate=N/A speed=16.3x    frame=13298 fps=390 q=-0.0 size=N/A time=00:09:14.63 bitrate=N/A speed=16.3x    frame=13506 fps=391 q=-0.0 size=N/A time=00:09:23.31 bitrate=N/A speed=16.3x    frame=13706 fps=391 q=-0.0 size=N/A time=00:09:31.65 bitrate=N/A speed=16.3x    frame=13926 fps=391 q=-0.0 size=N/A time=00:09:40.83 bitrate=N/A speed=16.3x    frame=14143 fps=392 q=-0.0 size=N/A time=00:09:49.88 bitrate=N/A speed=16.3x    frame=14342 fps=392 q=-0.0 size=N/A time=00:09:58.18 bitrate=N/A speed=16.3x    frame=14538 fps=391 q=-0.0 size=N/A time=00:10:06.35 bitrate=N/A speed=16.3x    frame=14734 fps=391 q=-0.0 size=N/A time=00:10:14.53 bitrate=N/A speed=16.3x    frame=14922 fps=391 q=-0.0 size=N/A time=00:10:22.37 bitrate=N/A speed=16.3x    frame=15122 fps=391 q=-0.0 size=N/A time=00:10:30.71 bitrate=N/A speed=16.3x    frame=15325 fps=391 q=-0.0 size=N/A time=00:10:39.18 bitrate=N/A speed=16.3x    frame=15527 fps=391 q=-0.0 size=N/A time=00:10:47.60 bitrate=N/A speed=16.3x    frame=15737 fps=391 q=-0.0 size=N/A time=00:10:56.36 bitrate=N/A speed=16.3x    frame=15940 fps=391 q=-0.0 size=N/A time=00:11:04.83 bitrate=N/A speed=16.3x    frame=16150 fps=391 q=-0.0 size=N/A time=00:11:13.58 bitrate=N/A speed=16.3x    frame=16324 fps=390 q=-0.0 size=N/A time=00:11:20.84 bitrate=N/A speed=16.3x    frame=16531 fps=391 q=-0.0 size=N/A time=00:11:29.48 bitrate=N/A speed=16.3x    frame=16704 fps=390 q=-0.0 size=N/A time=00:11:36.69 bitrate=N/A speed=16.3x    frame=16880 fps=389 q=-0.0 size=N/A time=00:11:44.03 bitrate=N/A speed=16.2x    frame=17067 fps=389 q=-0.0 size=N/A time=00:11:51.83 bitrate=N/A speed=16.2x    frame=17280 fps=389 q=-0.0 size=N/A time=00:12:00.72 bitrate=N/A speed=16.2x    frame=17483 fps=389 q=-0.0 size=N/A time=00:12:09.18 bitrate=N/A speed=16.2x    frame=17726 fps=390 q=-0.0 size=N/A time=00:12:19.36 bitrate=N/A speed=16.3x    frame=17953 fps=391 q=-0.0 size=N/A time=00:12:28.78 bitrate=N/A speed=16.3x    frame=18206 fps=392 q=-0.0 size=N/A time=00:12:39.34 bitrate=N/A speed=16.4x    frame=18469 fps=393 q=-0.0 size=N/A time=00:12:50.31 bitrate=N/A speed=16.4x    frame=18715 fps=394 q=-0.0 size=N/A time=00:13:00.57 bitrate=N/A speed=16.4x    frame=18943 fps=395 q=-0.0 size=N/A time=00:13:10.08 bitrate=N/A speed=16.5x    frame=19123 fps=394 q=-0.0 size=N/A time=00:13:17.58 bitrate=N/A speed=16.4x    frame=19320 fps=394 q=-0.0 size=N/A time=00:13:25.80 bitrate=N/A speed=16.4x    frame=19509 fps=394 q=-0.0 size=N/A time=00:13:33.68 bitrate=N/A speed=16.4x    frame=19730 fps=394 q=-0.0 size=N/A time=00:13:42.90 bitrate=N/A speed=16.4x    frame=19978 fps=395 q=-0.0 size=N/A time=00:13:53.24 bitrate=N/A speed=16.5x    frame=20197 fps=395 q=-0.0 size=N/A time=00:14:02.38 bitrate=N/A speed=16.5x    frame=20424 fps=396 q=-0.0 size=N/A time=00:14:11.85 bitrate=N/A speed=16.5x    frame=20629 fps=396 q=-0.0 size=N/A time=00:14:20.40 bitrate=N/A speed=16.5x    frame=20879 fps=397 q=-0.0 size=N/A time=00:14:30.82 bitrate=N/A speed=16.5x    frame=21097 fps=397 q=-0.0 size=N/A time=00:14:39.92 bitrate=N/A speed=16.6x    frame=21339 fps=398 q=-0.0 size=N/A time=00:14:50.01 bitrate=N/A speed=16.6x    frame=21594 fps=399 q=-0.0 size=N/A time=00:15:00.64 bitrate=N/A speed=16.6x    frame=21789 fps=398 q=-0.0 size=N/A time=00:15:08.78 bitrate=N/A speed=16.6x    frame=22008 fps=399 q=-0.0 size=N/A time=00:15:17.91 bitrate=N/A speed=16.6x    frame=22223 fps=399 q=-0.0 size=N/A time=00:15:26.88 bitrate=N/A speed=16.6x    frame=22425 fps=399 q=-0.0 size=N/A time=00:15:35.30 bitrate=N/A speed=16.6x    frame=22622 fps=399 q=-0.0 size=N/A time=00:15:43.52 bitrate=N/A speed=16.6x    frame=22860 fps=399 q=-0.0 size=N/A time=00:15:53.45 bitrate=N/A speed=16.6x    frame=23061 fps=399 q=-0.0 size=N/A time=00:16:01.83 bitrate=N/A speed=16.6x    frame=23273 fps=399 q=-0.0 size=N/A time=00:16:10.67 bitrate=N/A speed=16.6x    frame=23489 fps=399 q=-0.0 size=N/A time=00:16:19.68 bitrate=N/A speed=16.7x    frame=23692 fps=399 q=-0.0 size=N/A time=00:16:28.15 bitrate=N/A speed=16.6x    frame=23897 fps=399 q=-0.0 size=N/A time=00:16:36.70 bitrate=N/A speed=16.7x    frame=24136 fps=400 q=-0.0 size=N/A time=00:16:46.67 bitrate=N/A speed=16.7x    frame=24357 fps=400 q=-0.0 size=N/A time=00:16:55.88 bitrate=N/A speed=16.7x    frame=24617 fps=401 q=-0.0 size=N/A time=00:17:06.73 bitrate=N/A speed=16.7x    frame=24821 fps=401 q=-0.0 size=N/A time=00:17:15.28 bitrate=N/A speed=16.7x    frame=25056 fps=401 q=-0.0 size=N/A time=00:17:25.04 bitrate=N/A speed=16.7x    frame=25298 fps=402 q=-0.0 size=N/A time=00:17:35.13 bitrate=N/A speed=16.8x    frame=25555 fps=403 q=-0.0 size=N/A time=00:17:45.85 bitrate=N/A speed=16.8x    frame=25829 fps=404 q=-0.0 size=N/A time=00:17:57.28 bitrate=N/A speed=16.8x    frame=26082 fps=404 q=-0.0 size=N/A time=00:18:07.83 bitrate=N/A speed=16.9x    frame=26345 fps=405 q=-0.0 size=N/A time=00:18:18.80 bitrate=N/A speed=16.9x    frame=26559 fps=405 q=-0.0 size=N/A time=00:18:27.73 bitrate=N/A speed=16.9x    frame=26761 fps=405 q=-0.0 size=N/A time=00:18:36.15 bitrate=N/A speed=16.9x    frame=26944 fps=405 q=-0.0 size=N/A time=00:18:43.78 bitrate=N/A speed=16.9x    frame=27195 fps=405 q=-0.0 size=N/A time=00:18:54.25 bitrate=N/A speed=16.9x    frame=27421 fps=406 q=-0.0 size=N/A time=00:19:03.68 bitrate=N/A speed=16.9x    frame=27644 fps=406 q=-0.0 size=N/A time=00:19:12.98 bitrate=N/A speed=16.9x    frame=27869 fps=406 q=-0.0 size=N/A time=00:19:22.36 bitrate=N/A speed=16.9x    frame=28080 fps=406 q=-0.0 size=N/A time=00:19:31.17 bitrate=N/A speed=16.9x    frame=28312 fps=406 q=-0.0 size=N/A time=00:19:40.84 bitrate=N/A speed=  17x    frame=28543 fps=407 q=-0.0 size=N/A time=00:19:50.48 bitrate=N/A speed=  17x    frame=28740 fps=407 q=-0.0 size=N/A time=00:19:58.69 bitrate=N/A speed=  17x    frame=29010 fps=407 q=-0.0 size=N/A time=00:20:09.95 bitrate=N/A speed=  17x    frame=29284 fps=408 q=-0.0 size=N/A time=00:20:21.38 bitrate=N/A speed=  17x    frame=29553 fps=409 q=-0.0 size=N/A time=00:20:32.60 bitrate=N/A speed=17.1x    frame=29765 fps=409 q=-0.0 size=N/A time=00:20:41.44 bitrate=N/A speed=17.1x    frame=30003 fps=409 q=-0.0 size=N/A time=00:20:51.37 bitrate=N/A speed=17.1x    frame=30246 fps=410 q=-0.0 size=N/A time=00:21:01.51 bitrate=N/A speed=17.1x    frame=30469 fps=410 q=-0.0 size=N/A time=00:21:10.81 bitrate=N/A speed=17.1x    frame=30688 fps=410 q=-0.0 size=N/A time=00:21:19.94 bitrate=N/A speed=17.1x    frame=30937 fps=411 q=-0.0 size=N/A time=00:21:30.33 bitrate=N/A speed=17.1x    frame=31164 fps=411 q=-0.0 size=N/A time=00:21:39.79 bitrate=N/A speed=17.1x    frame=31347 fps=411 q=-0.0 size=N/A time=00:21:47.43 bitrate=N/A speed=17.1x    frame=31601 fps=411 q=-0.0 size=N/A time=00:21:58.02 bitrate=N/A speed=17.1x    frame=31759 fps=410 q=-0.0 size=N/A time=00:22:04.61 bitrate=N/A speed=17.1x    frame=31943 fps=410 q=-0.0 size=N/A time=00:22:12.28 bitrate=N/A speed=17.1x    frame=32173 fps=410 q=-0.0 size=N/A time=00:22:21.88 bitrate=N/A speed=17.1x    frame=32364 fps=410 q=-0.0 size=N/A time=00:22:29.84 bitrate=N/A speed=17.1x    frame=32563 fps=410 q=-0.0 size=N/A time=00:22:38.14 bitrate=N/A speed=17.1x    frame=32763 fps=410 q=-0.0 size=N/A time=00:22:46.49 bitrate=N/A speed=17.1x    frame=32969 fps=410 q=-0.0 size=N/A time=00:22:55.08 bitrate=N/A speed=17.1x    frame=33174 fps=409 q=-0.0 size=N/A time=00:23:03.63 bitrate=N/A speed=17.1x    frame=33382 fps=409 q=-0.0 size=N/A time=00:23:12.30 bitrate=N/A speed=17.1x    frame=33558 fps=409 q=-0.0 size=N/A time=00:23:19.64 bitrate=N/A speed=17.1x    frame=33723 fps=409 q=-0.0 size=N/A time=00:23:26.53 bitrate=N/A speed=  17x    frame=33894 fps=408 q=-0.0 size=N/A time=00:23:33.66 bitrate=N/A speed=  17x    frame=34085 fps=408 q=-0.0 size=N/A time=00:23:41.62 bitrate=N/A speed=  17x    frame=34297 fps=408 q=-0.0 size=N/A time=00:23:50.47 bitrate=N/A speed=  17x    frame=34495 fps=408 q=-0.0 size=N/A time=00:23:58.72 bitrate=N/A speed=  17x    [Parsed_psnr_10 @ 0000017bdfa70a00] PSNR y:47.745239 u:49.612043 v:49.364409 average:48.251833 min:37.687346 max:inf
[out#0/null @ 0000017bd397ec00] video:14858KiB audio:270432KiB subtitle:0KiB other streams:0KiB global headers:0KiB muxing overhead: unknown
frame=34578 fps=407 q=-0.0 Lsize=N/A time=00:24:02.19 bitrate=N/A speed=  17x    
